<?xml version="1.0" encoding="UTF-8" standalone="no"?>
<svg width="571px" height="587px" viewBox="0 0 571 587" version="1.1" xmlns="http://www.w3.org/2000/svg" xmlns:xlink="http://www.w3.org/1999/xlink">
    <defs></defs>
    <g id="Page-1" stroke="none" stroke-width="1" fill="none" fill-rule="evenodd">
        <g id="Layer-01">
            <path d="M7,170.62 C7,150.95 22.95,135 42.62,135 C62.29,135 78.24,150.95 78.24,170.62 C78.24,190.29 62.29,206.24 42.62,206.24 C22.95,206.24 7,190.29 7,170.62 L7,170.62 Z" id="Shape" fill="#D0011B"></path>
            <path d="M7,295.62 C7,275.95 22.95,260 42.62,260 C62.29,260 78.24,275.95 78.24,295.62 C78.24,315.29 62.29,331.24 42.62,331.24 C22.95,331.24 7,315.29 7,295.62 L7,295.62 Z" id="Shape" fill="#4990E2"></path>
            <path d="M7,420.62 C7,400.95 22.95,385 42.62,385 C62.29,385 78.24,400.95 78.24,420.62 C78.24,440.29 62.29,456.24 42.62,456.24 C22.95,456.24 7,440.29 7,420.62 L7,420.62 Z" id="Shape" fill="#BD0FE1"></path>
            <path d="M7,545.62 C7,525.95 22.95,510 42.62,510 C62.29,510 78.24,525.95 78.24,545.62 C78.24,565.29 62.29,581.24 42.62,581.24 C22.95,581.24 7,565.29 7,545.62 L7,545.62 Z" id="Shape" fill="#7ED321"></path>
            <polygon id="Shape" fill="#9B9B9B" points="0.953695459 0 570.853695 0 570.853695 71.24 0.953695459 71.24"></polygon>
            <polygon id="Shape" fill="#D0011B" points="97 138.646483 310.71 138.646483 310.71 209.886483 97 209.886483"></polygon>
            <polygon id="Shape" fill="#4990E2" points="97 265.449688 381.95 265.449688 381.95 336.689688 97 336.689688"></polygon>
            <polygon id="Shape" fill="#BD0FE1" points="97 388.691006 275.09 388.691006 275.09 459.931006 97 459.931006"></polygon>
            <polygon id="Shape" fill="#7ED321" points="97 515 417.57 515 417.57 586.24 97 586.24"></polygon>
        </g>
    </g>
</svg>